<svg width="100" height="25" viewBox="0 0 100 25" fill="none" xmlns="http://www.w3.org/2000/svg">
<circle cx="11.5" cy="12.5" r="9.68421" stroke="#1789FC" stroke-width="3.63158"/>
<mask id="path-2-inside-1_61_1397" fill="white">
<path d="M23 12.5C23 10.2255 22.3255 8.00211 21.0619 6.11094C19.7983 4.21978 18.0022 2.74579 15.9009 1.87539C13.7995 1.00498 11.4872 0.777239 9.25646 1.22097C7.02568 1.6647 4.97658 2.75997 3.36827 4.36827C1.75997 5.97658 0.664699 8.02568 0.220969 10.2565C-0.222761 12.4872 0.00497761 14.7995 0.875385 16.9009C1.74579 19.0022 3.21978 20.7983 5.11094 22.0619C7.00211 23.3255 9.22552 24 11.5 24V12.5H23Z"/>
</mask>
<path d="M23 12.5C23 10.2255 22.3255 8.00211 21.0619 6.11094C19.7983 4.21978 18.0022 2.74579 15.9009 1.87539C13.7995 1.00498 11.4872 0.777239 9.25646 1.22097C7.02568 1.6647 4.97658 2.75997 3.36827 4.36827C1.75997 5.97658 0.664699 8.02568 0.220969 10.2565C-0.222761 12.4872 0.00497761 14.7995 0.875385 16.9009C1.74579 19.0022 3.21978 20.7983 5.11094 22.0619C7.00211 23.3255 9.22552 24 11.5 24V12.5H23Z" stroke="#1789FC" stroke-width="7.26316" mask="url(#path-2-inside-1_61_1397)"/>
<path d="M30.7578 21V3.11719H45.4648V7.60547H38.668V10.8516H43.707V15.3398H38.668V21H30.7578ZM46.2852 12.6914V8.44922C48.332 7.33203 50.6523 6.77344 53.2461 6.77344C55.7148 6.77344 57.5352 7.30078 58.707 8.35547C59.8789 9.41016 60.4648 11.0234 60.4648 13.1953V21H53.2227V19.9453C52.1523 20.7266 50.9766 21.1172 49.6953 21.1172C48.6172 21.1172 47.7188 20.7695 47 20.0742C46.2812 19.3711 45.9219 18.4883 45.9219 17.4258C45.9219 16.2148 46.3672 15.2305 47.2578 14.4727C48.1484 13.707 49.3125 13.3242 50.75 13.3242C51.5938 13.3242 52.418 13.4336 53.2227 13.6523C53.2227 12.9961 52.9688 12.4844 52.4609 12.1172C51.9609 11.75 51.2617 11.5664 50.3633 11.5664C49.0352 11.5664 47.6758 11.9414 46.2852 12.6914ZM53.2227 17.8828V15.9141C52.7852 15.7656 52.3906 15.6914 52.0391 15.6914C51.6016 15.6914 51.25 15.8047 50.9844 16.0312C50.7188 16.2578 50.5859 16.5547 50.5859 16.9219C50.5859 17.3047 50.7266 17.625 51.0078 17.8828C51.2969 18.1406 51.6602 18.2695 52.0977 18.2695C52.543 18.2695 52.918 18.1406 53.2227 17.8828ZM70.4023 21H63.1602V3.11719H70.4023V21ZM80.4102 21H73.168V3.11719H80.4102V21ZM90.418 21.2109C88.1836 21.2109 86.3398 20.5391 84.8867 19.1953C83.4414 17.8438 82.7188 16.0859 82.7188 13.9219C82.7188 11.7578 83.4336 9.99609 84.8633 8.63672C86.293 7.27734 88.1445 6.59766 90.418 6.59766C92.707 6.59766 94.5664 7.27734 95.9961 8.63672C97.4336 9.99609 98.1523 11.7578 98.1523 13.9219C98.1523 16.0781 97.4336 17.832 95.9961 19.1836C94.5664 20.5352 92.707 21.2109 90.418 21.2109ZM90.418 12.1641C89.9492 12.1641 89.5664 12.3164 89.2695 12.6211C88.9805 12.918 88.8359 13.3047 88.8359 13.7812C88.8359 14.2578 88.9805 14.6445 89.2695 14.9414C89.5664 15.2383 89.9492 15.3867 90.418 15.3867C90.8945 15.3867 91.2812 15.2383 91.5781 14.9414C91.875 14.6445 92.0234 14.2578 92.0234 13.7812C92.0234 13.2969 91.875 12.9062 91.5781 12.6094C91.2812 12.3125 90.8945 12.1641 90.418 12.1641Z" fill="#1789FC"/>
</svg>
